# xmcd
#
# Track frame offsets:
#	150
#	10861
#	19864
#	31595
#	40808
#	51772
#	61746
#	72523
#	82740
#	92128
#	101650
#	110319
#	119224
#	132158
#	141998
#	151098
#	160032
#	169317
#	178150
#	186650
#	195840
#	206772
#	216837
#	228049
#	238433
#	246767
#	259351
#	269961
#	280326
#	291196
#
# Disc length: 3981 seconds
#
# Revision: 1
# Processed by: cddbd v1.5.2PL0 Copyright (c) Steve Scherf et al.
# Submitted via: audiograbber 1.83.01
#
DISCID=be0f8b1e
DTITLE=Sammy Salvo - Eagle 90126
DYEAR=1999
DGENRE=
TTITLE0=Lonely Dreamer
TTITLE1=One Little Baby
TTITLE2=Oh Julie
TTITLE3=Say Yeah
TTITLE4=Julie Doesn't Love Me Anymore
TTITLE5=She Takes Sunbaths
TTITLE6=Me And You
TTITLE7=Lovin' At Night
TTITLE8=Am I Lucky
TTITLE9=Here I Go Again
TTITLE10=My Perfect Love
TTITLE11=Wolf Boy
TTITLE12=It's The After (That Hurts)
TTITLE13=Kaw-Liga
TTITLE14=Afraid
TTITLE15=Marble Heart
TTITLE16=Oh True Love
TTITLE17=Leave Me No More
TTITLE18=A Mushroom Cloud
TTITLE19=Don't Cast Your Spell On Me
TTITLE20=The Bully Of The Beach
TTITLE21=How The Mighty Have Fallen
TTITLE22=Billy Blue
TTITLE23=French Poodle
TTITLE24=Night
TTITLE25=Young At Heart
TTITLE26=Throw Me In A Crowd Of Girls
TTITLE27=I'm Building An Ocean
TTITLE28=Pot Of Gold
TTITLE29=Ole Time Religion
EXTD=
EXTT0=
EXTT1=
EXTT2=
EXTT3=
EXTT4=
EXTT5=
EXTT6=
EXTT7=
EXTT8=
EXTT9=
EXTT10=
EXTT11=
EXTT12=
EXTT13=
EXTT14=
EXTT15=
EXTT16=
EXTT17=
EXTT18=
EXTT19=
EXTT20=
EXTT21=
EXTT22=
EXTT23=
EXTT24=
EXTT25=
EXTT26=
EXTT27=
EXTT28=
EXTT29=
PLAYORDER=
